<svg width="176" height="202" viewBox="0 0 176 202" fill="none" xmlns="http://www.w3.org/2000/svg">
    <defs>
        <linearGradient id="paint0_linear_29_20" x1="88" y1="50.5" x2="88" y2="252.5" gradientUnits="userSpaceOnUse">
            <stop stop-color="#8FFF00" />
            <stop offset="1" stop-color="#06A9DC" />
        </linearGradient>
        <linearGradient id="paint1_linear_29_20" x1="88.55" y1="18.6631" x2="88.55" y2="186.63"
            gradientUnits="userSpaceOnUse">
            <stop stop-color="#8FFF00" />
            <stop offset="1" stop-color="#06A9DC" />
        </linearGradient>
        <linearGradient id="paint2_linear_29_20" x1="88.55" y1="0" x2="88.55" y2="102.098"
            gradientUnits="userSpaceOnUse">
            <stop stop-color="#8FFF00" />
            <stop offset="1" stop-color="#06A9DC" />
        </linearGradient>
        <linearGradient id="paint3_linear_29_20" x1="51.5286" y1="161.45" x2="140.243" y2="161.45"
            gradientUnits="userSpaceOnUse">
            <stop offset="0.411358" stop-color="#EDEDED" />
            <stop offset="0.411458" stop-color="white" />
        </linearGradient>
        <radialGradient id="paint4_radial_29_20" cx="0" cy="0" r="1" gradientUnits="userSpaceOnUse"
            gradientTransform="translate(88 154.793) rotate(90) scale(47.2065 126.5)">
            <stop stop-color="#767676" />
            <stop offset="1" stop-color="#E4E4E4" />
        </radialGradient>
    </defs>
    <path d="M88 50.5L176 202H151.25L88.275 188.826L24.75 202H0L88 50.5Z" fill="url(#paint0_linear_29_20)" />
    <path d="M88.55 18.6631L161.426 144.639H15.674L88.55 18.6631Z" fill="url(#paint1_linear_29_20)" />
    <path d="M88.55 0L132.847 76.5734H44.2528L88.55 0Z" fill="url(#paint2_linear_29_20)" />
    <path d="M88 101.865L151.25 202L88 188.826L24.75 202L88 101.865Z" fill="url(#paint3_linear_29_20)" />
    <path d="M88 154.793L151.25 202L88 188.826L24.75 202L88 154.793Z" fill="url(#paint4_radial_29_20)" />
</svg>